<?xml version="1.0" encoding="UTF-8" standalone="no"?><svg xmlns="http://www.w3.org/2000/svg" xmlns:xlink="http://www.w3.org/1999/xlink" contentScriptType="application/ecmascript" contentStyleType="text/css" height="519px" preserveAspectRatio="none" style="width:698px;height:519px;" version="1.1" viewBox="0 0 698 519" width="698px" zoomAndPan="magnify"><defs/><g><!--cluster before--><polygon fill="#FFFFFF" points="22,95,75,95,82,118.6094,253,118.6094,253,507,22,507,22,95" style="stroke: #A0A0A0; stroke-width: 1.5;"/><line style="stroke: #A0A0A0; stroke-width: 1.5;" x1="22" x2="82" y1="118.6094" y2="118.6094"/><text fill="#A0A0A0" font-family="sans-serif" font-size="14" font-weight="bold" lengthAdjust="spacingAndGlyphs" textLength="47" x="26" y="111.5332">before</text><!--cluster after--><polygon fill="#FFFFFF" points="327,24,366,24,373,47.6094,676,47.6094,676,507,327,507,327,24" style="stroke: #A0A0A0; stroke-width: 1.5;"/><line style="stroke: #A0A0A0; stroke-width: 1.5;" x1="327" x2="373" y1="47.6094" y2="47.6094"/><text fill="#A0A0A0" font-family="sans-serif" font-size="14" font-weight="bold" lengthAdjust="spacingAndGlyphs" textLength="33" x="331" y="40.5332">after</text><!--class before.banker_aosoa_Structure--><rect fill="#FFFFFF" height="32" id="before.banker_aosoa_Structure" style="stroke: #202020; stroke-width: 1.5;" width="169" x="67.5" y="131"/><ellipse cx="82.5" cy="147" fill="#E6E6FA" rx="11" ry="11" style="stroke: #202020; stroke-width: 1.0;"/><path d="M83.6719,151.7188 L84.4063,151.7188 L84.4063,153.8594 L80.7188,153.8594 L80.7188,151.7188 L81.4531,151.7188 L81.4531,142.375 L80.7188,142.375 L80.7188,140.2344 L84.4063,140.2344 L84.4063,142.375 L83.6719,142.375 L83.6719,151.7188 Z "/><text fill="#000000" font-family="sans-serif" font-size="12" font-style="italic" lengthAdjust="spacingAndGlyphs" textLength="137" x="96.5" y="151.9102">banker_aosoa_Structure</text><!--class before.YourEntity--><rect fill="#FFFFFF" height="67.6719" id="before.YourEntity" style="stroke: #202020; stroke-width: 1.5;" width="86" x="151" y="312.5"/><ellipse cx="166" cy="328.5" fill="#ADD1B2" rx="11" ry="11" style="stroke: #202020; stroke-width: 1.0;"/><path d="M169.6875,329.7031 Q169.4375,333.1875 168.2969,334.3438 Q167.2656,335.3594 165.8594,335.3594 Q164.4531,335.3594 163.4219,334.3438 Q161.6719,332.5781 161.6719,328.9063 Q161.6719,324.6563 163.5469,322.75 Q164.5938,321.7344 165.9219,321.7344 Q167.3281,321.7344 168.1719,322.5469 Q169.6563,324.0625 169.5781,326.9375 L167.4531,326.9375 Q167.375,324.6094 166.7344,323.9688 Q166.4531,323.6719 165.9219,323.6719 Q165.4688,323.6719 165.1094,324.0469 Q163.875,325.2656 163.875,328.7813 Q163.875,331.8281 164.9219,332.8438 Q165.3438,333.2813 165.8594,333.2813 Q166.3125,333.2813 166.75,332.8438 Q167.3125,332.2969 167.3906,329.7031 L169.6875,329.7031 Z "/><text fill="#000000" font-family="sans-serif" font-size="12" lengthAdjust="spacingAndGlyphs" textLength="54" x="180" y="333.4102">YourEntity</text><line style="stroke: #202020; stroke-width: 1.5;" x1="152" x2="236" y1="344.5" y2="344.5"/><ellipse cx="162" cy="355.5" fill="#84BE84" rx="3" ry="3" style="stroke: #038048; stroke-width: 1.0;"/><text fill="#000000" font-family="sans-serif" font-size="11" lengthAdjust="spacingAndGlyphs" textLength="34" x="171" y="359.9189">move()</text><ellipse cx="162" cy="369.3359" fill="#84BE84" rx="3" ry="3" style="stroke: #038048; stroke-width: 1.0;"/><text fill="#000000" font-family="sans-serif" font-size="11" lengthAdjust="spacingAndGlyphs" textLength="26" x="171" y="373.7549">use()</text><!--class before.Position--><rect fill="#FFFFFF" height="32" id="before.Position" style="stroke: #202020; stroke-width: 1.5;" width="77" x="48.5" y="459"/><ellipse cx="63.5" cy="475" fill="#ADD1B2" rx="11" ry="11" style="stroke: #202020; stroke-width: 1.0;"/><path d="M67.1875,476.2031 Q66.9375,479.6875 65.7969,480.8438 Q64.7656,481.8594 63.3594,481.8594 Q61.9531,481.8594 60.9219,480.8438 Q59.1719,479.0781 59.1719,475.4063 Q59.1719,471.1563 61.0469,469.25 Q62.0938,468.2344 63.4219,468.2344 Q64.8281,468.2344 65.6719,469.0469 Q67.1563,470.5625 67.0781,473.4375 L64.9531,473.4375 Q64.875,471.1094 64.2344,470.4688 Q63.9531,470.1719 63.4219,470.1719 Q62.9688,470.1719 62.6094,470.5469 Q61.375,471.7656 61.375,475.2813 Q61.375,478.3281 62.4219,479.3438 Q62.8438,479.7813 63.3594,479.7813 Q63.8125,479.7813 64.25,479.3438 Q64.8125,478.7969 64.8906,476.2031 L67.1875,476.2031 Z "/><text fill="#000000" font-family="sans-serif" font-size="12" lengthAdjust="spacingAndGlyphs" textLength="45" x="77.5" y="479.9102">Position</text><!--class before.Velocity--><rect fill="#FFFFFF" height="32" id="before.Velocity" style="stroke: #202020; stroke-width: 1.5;" width="73" x="160.5" y="459"/><ellipse cx="175.5" cy="475" fill="#ADD1B2" rx="11" ry="11" style="stroke: #202020; stroke-width: 1.0;"/><path d="M179.1875,476.2031 Q178.9375,479.6875 177.7969,480.8438 Q176.7656,481.8594 175.3594,481.8594 Q173.9531,481.8594 172.9219,480.8438 Q171.1719,479.0781 171.1719,475.4063 Q171.1719,471.1563 173.0469,469.25 Q174.0938,468.2344 175.4219,468.2344 Q176.8281,468.2344 177.6719,469.0469 Q179.1563,470.5625 179.0781,473.4375 L176.9531,473.4375 Q176.875,471.1094 176.2344,470.4688 Q175.9531,470.1719 175.4219,470.1719 Q174.9688,470.1719 174.6094,470.5469 Q173.375,471.7656 173.375,475.2813 Q173.375,478.3281 174.4219,479.3438 Q174.8438,479.7813 175.3594,479.7813 Q175.8125,479.7813 176.25,479.3438 Q176.8125,478.7969 176.8906,476.2031 L179.1875,476.2031 Z "/><text fill="#000000" font-family="sans-serif" font-size="12" lengthAdjust="spacingAndGlyphs" textLength="41" x="189.5" y="479.9102">Velocity</text><path d="M38,294 L38,336.7031 A0,0 0 0 0 38,336.7031 L116,336.7031 A0,0 0 0 0 116,336.7031 L116,319.3516 L155,355.418 L116,311.3516 L116,304 L106,294 L38,294 A0,0 0 0 0 38,294 " fill="#FFFFFF" style="stroke: #C0C0C0; stroke-width: 1.0;"/><path d="M106,294 L106,304 L116,304 L106,294 " fill="#FFFFFF" style="stroke: #C0C0C0; stroke-width: 1.0;"/><text fill="#606060" font-family="sans-serif" font-size="13" lengthAdjust="spacingAndGlyphs" textLength="55" x="44" y="312.4951">Move just</text><text fill="#606060" font-family="sans-serif" font-size="13" lengthAdjust="spacingAndGlyphs" textLength="57" x="44" y="328.8467">one entity</text><path d="M38,346.7031 L38,389.4063 A0,0 0 0 0 38,389.4063 L95,389.4063 A0,0 0 0 0 95,389.4063 L95,372.0547 L155,369.2539 L95,364.0547 L95,356.7031 L85,346.7031 L38,346.7031 A0,0 0 0 0 38,346.7031 " fill="#FFFFFF" style="stroke: #C0C0C0; stroke-width: 1.0;"/><path d="M85,346.7031 L85,356.7031 L95,356.7031 L85,346.7031 " fill="#FFFFFF" style="stroke: #C0C0C0; stroke-width: 1.0;"/><text fill="#606060" font-family="sans-serif" font-size="13" lengthAdjust="spacingAndGlyphs" textLength="20" x="44" y="365.1982">Set</text><text fill="#606060" font-family="sans-serif" font-size="13" lengthAdjust="spacingAndGlyphs" textLength="36" x="44" y="381.5498">values</text><!--class after.YourEntityChunk--><rect fill="#FFFFFF" height="32" id="after.YourEntityChunk" style="stroke: #202020; stroke-width: 1.5;" width="122" x="538" y="330.5"/><ellipse cx="553" cy="346.5" fill="#ADD1B2" rx="11" ry="11" style="stroke: #202020; stroke-width: 1.0;"/><path d="M556.6875,347.7031 Q556.4375,351.1875 555.2969,352.3438 Q554.2656,353.3594 552.8594,353.3594 Q551.4531,353.3594 550.4219,352.3438 Q548.6719,350.5781 548.6719,346.9063 Q548.6719,342.6563 550.5469,340.75 Q551.5938,339.7344 552.9219,339.7344 Q554.3281,339.7344 555.1719,340.5469 Q556.6563,342.0625 556.5781,344.9375 L554.4531,344.9375 Q554.375,342.6094 553.7344,341.9688 Q553.4531,341.6719 552.9219,341.6719 Q552.4688,341.6719 552.1094,342.0469 Q550.875,343.2656 550.875,346.7813 Q550.875,349.8281 551.9219,350.8438 Q552.3438,351.2813 552.8594,351.2813 Q553.3125,351.2813 553.75,350.8438 Q554.3125,350.2969 554.3906,347.7031 L556.6875,347.7031 Z "/><text fill="#000000" font-family="sans-serif" font-size="12" lengthAdjust="spacingAndGlyphs" textLength="90" x="567" y="351.4102">YourEntityChunk</text><!--class after.YourEntityAosoa--><rect fill="#FFFFFF" height="81.5078" id="after.YourEntityAosoa" style="stroke: #202020; stroke-width: 1.5;" width="121" x="538.5" y="106"/><ellipse cx="553.5" cy="122" fill="#ADD1B2" rx="11" ry="11" style="stroke: #202020; stroke-width: 1.0;"/><path d="M557.1875,123.2031 Q556.9375,126.6875 555.7969,127.8438 Q554.7656,128.8594 553.3594,128.8594 Q551.9531,128.8594 550.9219,127.8438 Q549.1719,126.0781 549.1719,122.4063 Q549.1719,118.1563 551.0469,116.25 Q552.0938,115.2344 553.4219,115.2344 Q554.8281,115.2344 555.6719,116.0469 Q557.1563,117.5625 557.0781,120.4375 L554.9531,120.4375 Q554.875,118.1094 554.2344,117.4688 Q553.9531,117.1719 553.4219,117.1719 Q552.9688,117.1719 552.6094,117.5469 Q551.375,118.7656 551.375,122.2813 Q551.375,125.3281 552.4219,126.3438 Q552.8438,126.7813 553.3594,126.7813 Q553.8125,126.7813 554.25,126.3438 Q554.8125,125.7969 554.8906,123.2031 L557.1875,123.2031 Z "/><text fill="#000000" font-family="sans-serif" font-size="12" lengthAdjust="spacingAndGlyphs" textLength="89" x="567.5" y="126.9102">YourEntityAosoa</text><line style="stroke: #202020; stroke-width: 1.5;" x1="539.5" x2="658.5" y1="138" y2="138"/><ellipse cx="549.5" cy="149" fill="#84BE84" rx="3" ry="3" style="stroke: #038048; stroke-width: 1.0;"/><text fill="#000000" font-family="sans-serif" font-size="11" lengthAdjust="spacingAndGlyphs" textLength="34" x="558.5" y="153.4189">move()</text><ellipse cx="549.5" cy="162.8359" fill="#84BE84" rx="3" ry="3" style="stroke: #038048; stroke-width: 1.0;"/><text fill="#000000" font-family="sans-serif" font-size="11" lengthAdjust="spacingAndGlyphs" textLength="26" x="558.5" y="167.2549">use()</text><ellipse cx="549.5" cy="176.6719" fill="#84BE84" rx="3" ry="3" style="stroke: #038048; stroke-width: 1.0;"/><text fill="#000000" font-family="sans-serif" font-size="11" lengthAdjust="spacingAndGlyphs" textLength="68" x="558.5" y="181.0908">synchronize()</text><path d="M343.5,317 L343.5,376.0547 A0,0 0 0 0 343.5,376.0547 L502.5,376.0547 A0,0 0 0 0 502.5,376.0547 L502.5,350.5 L537.716,346.5 L502.5,342.5 L502.5,327 L492.5,317 L343.5,317 A0,0 0 0 0 343.5,317 " fill="#FFFFFF" style="stroke: #C0C0C0; stroke-width: 1.0;"/><path d="M492.5,317 L492.5,327 L502.5,327 L492.5,317 " fill="#FFFFFF" style="stroke: #C0C0C0; stroke-width: 1.0;"/><text fill="#606060" font-family="sans-serif" font-size="13" lengthAdjust="spacingAndGlyphs" textLength="95" x="349.5" y="335.4951">An iteration unit.</text><text fill="#606060" font-family="sans-serif" font-size="13" lengthAdjust="spacingAndGlyphs" textLength="138" x="349.5" y="351.8467">Basicaly you don't need</text><text fill="#606060" font-family="sans-serif" font-size="13" lengthAdjust="spacingAndGlyphs" textLength="110" x="349.5" y="368.1982">to handle it directly</text><path d="M345,60 L345,102.7031 A0,0 0 0 0 345,102.7031 L503,102.7031 A0,0 0 0 0 503,102.7031 L503,85.3516 L542.5,148.918 L503,77.3516 L503,70 L493,60 L345,60 A0,0 0 0 0 345,60 " fill="#FFFFFF" style="stroke: #C0C0C0; stroke-width: 1.0;"/><path d="M493,60 L493,70 L503,70 L493,60 " fill="#FFFFFF" style="stroke: #C0C0C0; stroke-width: 1.0;"/><text fill="#606060" font-family="sans-serif" font-size="13" lengthAdjust="spacingAndGlyphs" textLength="93" x="351" y="78.4951">Move all entities</text><text fill="#606060" font-family="sans-serif" font-size="13" lengthAdjust="spacingAndGlyphs" textLength="137" x="351" y="94.8467">that are currently in use</text><path d="M345,112.7031 L345,171.7578 A0,0 0 0 0 345,171.7578 L466,171.7578 A0,0 0 0 0 466,171.7578 L466,146.2305 L542.5,162.7539 L466,138.2305 L466,122.7031 L456,112.7031 L345,112.7031 A0,0 0 0 0 345,112.7031 " fill="#FFFFFF" style="stroke: #C0C0C0; stroke-width: 1.0;"/><path d="M456,112.7031 L456,122.7031 L466,122.7031 L456,112.7031 " fill="#FFFFFF" style="stroke: #C0C0C0; stroke-width: 1.0;"/><text fill="#606060" font-family="sans-serif" font-size="13" lengthAdjust="spacingAndGlyphs" textLength="100" x="351" y="131.1982">Activate an entity</text><text fill="#606060" font-family="sans-serif" font-size="13" lengthAdjust="spacingAndGlyphs" textLength="97" x="351" y="147.5498">that is not in use</text><text fill="#606060" font-family="sans-serif" font-size="13" lengthAdjust="spacingAndGlyphs" textLength="83" x="351" y="163.9014">and set values</text><path d="M345,181.7578 L345,224.4609 A0,0 0 0 0 345,224.4609 L484,224.4609 A0,0 0 0 0 484,224.4609 L484,207.1094 L542.5,176.5898 L484,199.1094 L484,191.7578 L474,181.7578 L345,181.7578 A0,0 0 0 0 345,181.7578 " fill="#FFFFFF" style="stroke: #C0C0C0; stroke-width: 1.0;"/><path d="M474,181.7578 L474,191.7578 L484,191.7578 L474,181.7578 " fill="#FFFFFF" style="stroke: #C0C0C0; stroke-width: 1.0;"/><text fill="#606060" font-family="sans-serif" font-size="13" lengthAdjust="spacingAndGlyphs" textLength="111" x="351" y="200.2529">Reflect any change</text><text fill="#606060" font-family="sans-serif" font-size="13" lengthAdjust="spacingAndGlyphs" textLength="118" x="351" y="216.6045">including use/disuse</text><!--class after.Position--><rect fill="#FFFFFF" height="32" id="after.Position" style="stroke: #202020; stroke-width: 1.5;" width="77" x="397.5" y="459"/><ellipse cx="412.5" cy="475" fill="#ADD1B2" rx="11" ry="11" style="stroke: #202020; stroke-width: 1.0;"/><path d="M416.1875,476.2031 Q415.9375,479.6875 414.7969,480.8438 Q413.7656,481.8594 412.3594,481.8594 Q410.9531,481.8594 409.9219,480.8438 Q408.1719,479.0781 408.1719,475.4063 Q408.1719,471.1563 410.0469,469.25 Q411.0938,468.2344 412.4219,468.2344 Q413.8281,468.2344 414.6719,469.0469 Q416.1563,470.5625 416.0781,473.4375 L413.9531,473.4375 Q413.875,471.1094 413.2344,470.4688 Q412.9531,470.1719 412.4219,470.1719 Q411.9688,470.1719 411.6094,470.5469 Q410.375,471.7656 410.375,475.2813 Q410.375,478.3281 411.4219,479.3438 Q411.8438,479.7813 412.3594,479.7813 Q412.8125,479.7813 413.25,479.3438 Q413.8125,478.7969 413.8906,476.2031 L416.1875,476.2031 Z "/><text fill="#000000" font-family="sans-serif" font-size="12" lengthAdjust="spacingAndGlyphs" textLength="45" x="426.5" y="479.9102">Position</text><!--class after.Velocity--><rect fill="#FFFFFF" height="32" id="after.Velocity" style="stroke: #202020; stroke-width: 1.5;" width="73" x="562.5" y="459"/><ellipse cx="577.5" cy="475" fill="#ADD1B2" rx="11" ry="11" style="stroke: #202020; stroke-width: 1.0;"/><path d="M581.1875,476.2031 Q580.9375,479.6875 579.7969,480.8438 Q578.7656,481.8594 577.3594,481.8594 Q575.9531,481.8594 574.9219,480.8438 Q573.1719,479.0781 573.1719,475.4063 Q573.1719,471.1563 575.0469,469.25 Q576.0938,468.2344 577.4219,468.2344 Q578.8281,468.2344 579.6719,469.0469 Q581.1563,470.5625 581.0781,473.4375 L578.9531,473.4375 Q578.875,471.1094 578.2344,470.4688 Q577.9531,470.1719 577.4219,470.1719 Q576.9688,470.1719 576.6094,470.5469 Q575.375,471.7656 575.375,475.2813 Q575.375,478.3281 576.4219,479.3438 Q576.8438,479.7813 577.3594,479.7813 Q577.8125,479.7813 578.25,479.3438 Q578.8125,478.7969 578.8906,476.2031 L581.1875,476.2031 Z "/><text fill="#000000" font-family="sans-serif" font-size="12" lengthAdjust="spacingAndGlyphs" textLength="41" x="591.5" y="479.9102">Velocity</text><!--link before.YourEntity$$$LEFT to before.YourEntity--><!--link before.YourEntity$$$LEFT to before.YourEntity--><!--reverse link before.banker_aosoa_Structure to before.YourEntity--><path d="M159.42,182.889 C167.18,219.383 179.274,276.251 186.909,312.157 " fill="none" id="before.banker_aosoa_Structure&lt;-before.YourEntity" style="stroke: #202020; stroke-width: 1.0; stroke-dasharray: 7.0,7.0;"/><polygon fill="none" points="152.539,184.188,155.226,163.17,166.233,181.276,152.539,184.188" style="stroke: #202020; stroke-width: 1.0;"/><!--reverse link before.YourEntity to before.Position--><path d="M157.291,390.899 C137.321,414.508 113.877,442.2244 99.7441,458.9334 " fill="none" id="before.YourEntity&lt;-before.Position" style="stroke: #202020; stroke-width: 1.0;"/><polygon fill="#FFFFFF" points="165.887,380.736,158.958,382.7333,158.1366,389.8974,165.0656,387.9002,165.887,380.736" style="stroke: #202020; stroke-width: 1.0;"/><text fill="#000000" font-family="sans-serif" font-size="13" lengthAdjust="spacingAndGlyphs" textLength="7" x="136.0785" y="401.5488">1</text><text fill="#000000" font-family="sans-serif" font-size="13" lengthAdjust="spacingAndGlyphs" textLength="7" x="95.9218" y="448.216">1</text><!--reverse link before.YourEntity to before.Velocity--><path d="M195.097,393.777 C195.642,416.728 196.262,442.8987 196.643,458.9334 " fill="none" id="before.YourEntity&lt;-before.Velocity" style="stroke: #202020; stroke-width: 1.0;"/><polygon fill="#FFFFFF" points="194.788,380.736,190.9316,386.8293,195.0728,392.7326,198.9293,386.6394,194.788,380.736" style="stroke: #202020; stroke-width: 1.0;"/><text fill="#000000" font-family="sans-serif" font-size="13" lengthAdjust="spacingAndGlyphs" textLength="7" x="182.9781" y="401.5488">1</text><text fill="#000000" font-family="sans-serif" font-size="13" lengthAdjust="spacingAndGlyphs" textLength="7" x="183.6297" y="448.216">1</text><!--link after.YourEntityAosoa$$$LEFT to after.YourEntityAosoa--><!--link after.YourEntityAosoa$$$LEFT to after.YourEntityAosoa--><!--link after.YourEntityAosoa$$$LEFT to after.YourEntityAosoa--><!--reverse link after.YourEntityAosoa to after.YourEntityChunk--><path d="M599,201.687 C599,245.14 599,303.411 599,330.495 " fill="none" id="after.YourEntityAosoa&lt;-after.YourEntityChunk" style="stroke: #202020; stroke-width: 1.0;"/><polygon fill="#202020" points="599,188.444,595,194.444,599,200.444,603,194.444,599,188.444" style="stroke: #202020; stroke-width: 1.0;"/><text fill="#000000" font-family="sans-serif" font-size="13" lengthAdjust="spacingAndGlyphs" textLength="7" x="587.2266" y="208.9515">1</text><text fill="#000000" font-family="sans-serif" font-size="13" lengthAdjust="spacingAndGlyphs" textLength="7" x="586.0406" y="319.501">n</text><!--reverse link after.YourEntityChunk to after.Position--><path d="M569.261,370.58 C536.217,396.224 483.807,436.8986 455.567,458.8148 " fill="none" id="after.YourEntityChunk&lt;-after.Position" style="stroke: #202020; stroke-width: 1.0;"/><polygon fill="#FFFFFF" points="579.662,362.508,572.4696,363.0265,570.1818,369.8651,577.3743,369.3466,579.662,362.508" style="stroke: #202020; stroke-width: 1.0;"/><text fill="#000000" font-family="sans-serif" font-size="13" lengthAdjust="spacingAndGlyphs" textLength="7" x="541.7844" y="384.014">1</text><text fill="#000000" font-family="sans-serif" font-size="13" lengthAdjust="spacingAndGlyphs" textLength="7" x="449.4025" y="448.0567">n</text><!--reverse link after.YourEntityChunk to after.Velocity--><path d="M599,375.74 C599,401.33 599,438.0807 599,458.6171 " fill="none" id="after.YourEntityChunk&lt;-after.Velocity" style="stroke: #202020; stroke-width: 1.0;"/><polygon fill="#FFFFFF" points="599,362.508,595,368.508,599,374.508,603,368.508,599,362.508" style="stroke: #202020; stroke-width: 1.0;"/><text fill="#000000" font-family="sans-serif" font-size="13" lengthAdjust="spacingAndGlyphs" textLength="7" x="586.1781" y="384.014">1</text><text fill="#000000" font-family="sans-serif" font-size="13" lengthAdjust="spacingAndGlyphs" textLength="7" x="586.1781" y="448.0936">n</text><!--link before.YourEntity to after.YourEntityChunk--><!--link before.banker_aosoa_Structure to after.Position--><!--
@startuml aosoa


skinparam shadowing false
skinparam backgroundColor White
skinparam package {
  BorderColor #A0A0A0
  FontColor #A0A0A0
}
skinparam class {
  BackgroundColor White
  ArrowColor #202020
  BorderColor #202020
  FontColor #000000
}
skinparam note {
  BackgroundColor White
  FontColor #606060
  BorderColor #C0C0C0
}
skinparam stereotypeIBackgroundColor Lavender
hide empty members


namespace before {
  interface banker_aosoa_Structure
  class YourEntity {
    + move()
    + use()
  }
  class Position
  class Velocity

  note left of YourEntity::move
  Move just
  one entity
  end note

  note left of YourEntity::use
  Set
  values
  end note

  banker_aosoa_Structure <|.. YourEntity
  YourEntity "1    " o- - "1" Position
  YourEntity "1 " o- - "1 " Velocity
}

namespace after {
  class YourEntityChunk {
  }

  class YourEntityAosoa {
    + move()
    + use()
    + synchronize()
  }

  note left of YourEntityChunk
  An iteration unit.
  Basicaly you don't need
  to handle it directly
  end note

  note left of YourEntityAosoa::move
  Move all entities
  that are currently in use
  end note

  note left of YourEntityAosoa::use
  Activate an entity
  that is not in use
  and set values
  end note

  note left of YourEntityAosoa::synchronize
  Reflect any change
  including use/disuse
  end note


  class Position
  class Velocity

  YourEntityAosoa "1 " *- - "n " YourEntityChunk
  YourEntityChunk "1     " o- - "n " Position
  YourEntityChunk "1 " o- - "n " Velocity
}

before.YourEntity -[hidden]right- after.YourEntityChunk
before.banker_aosoa_Structure -[hidden]right- after.Position

@enduml

PlantUML version 1.2019.09(Tue Aug 27 01:19:51 GMT+09:00 2019)
(GPL source distribution)
Java Runtime: OpenJDK Runtime Environment
JVM: OpenJDK 64-Bit Server VM
Java Version: 1.8.0_242-b08
Operating System: Windows 10
OS Version: 10.0
Default Encoding: MS932
Language: ja
Country: JP
--></g></svg>