<?xml version="1.0" encoding="UTF-8" standalone="no"?><svg xmlns="http://www.w3.org/2000/svg" xmlns:xlink="http://www.w3.org/1999/xlink" contentScriptType="application/ecmascript" contentStyleType="text/css" height="595px" preserveAspectRatio="none" style="width:816px;height:595px;" version="1.1" viewBox="0 0 816 595" width="816px" zoomAndPan="magnify"><defs/><g><!--cluster interfaces--><polygon fill="#FFFFFF" points="32,24,109,24,116,47.6094,657,47.6094,657,108,32,108,32,24" style="stroke: #A0A0A0; stroke-width: 1.5;"/><line style="stroke: #A0A0A0; stroke-width: 1.5;" x1="32" x2="116" y1="47.6094" y2="47.6094"/><text fill="#A0A0A0" font-family="sans-serif" font-size="14" font-weight="bold" lengthAdjust="spacingAndGlyphs" textLength="71" x="36" y="40.5332">interfaces</text><!--cluster ring_buffer--><polygon fill="#FFFFFF" points="22,238,107,238,114,261.6094,281,261.6094,281,322,22,322,22,238" style="stroke: #A0A0A0; stroke-width: 1.5;"/><line style="stroke: #A0A0A0; stroke-width: 1.5;" x1="22" x2="114" y1="261.6094" y2="261.6094"/><text fill="#A0A0A0" font-family="sans-serif" font-size="14" font-weight="bold" lengthAdjust="spacingAndGlyphs" textLength="79" x="26" y="254.5332">ring_buffer</text><!--cluster top_aligned_buffer--><polygon fill="#FFFFFF" points="308,238,448,238,455,261.6094,794,261.6094,794,322,308,322,308,238" style="stroke: #A0A0A0; stroke-width: 1.5;"/><line style="stroke: #A0A0A0; stroke-width: 1.5;" x1="308" x2="455" y1="261.6094" y2="261.6094"/><text fill="#A0A0A0" font-family="sans-serif" font-size="14" font-weight="bold" lengthAdjust="spacingAndGlyphs" textLength="134" x="312" y="254.5332">top_aligned_buffer</text><!--cluster order--><polygon fill="#FFFFFF" points="246,391,291,391,298,414.6094,482,414.6094,482,475,246,475,246,391" style="stroke: #A0A0A0; stroke-width: 1.5;"/><line style="stroke: #A0A0A0; stroke-width: 1.5;" x1="246" x2="298" y1="414.6094" y2="414.6094"/><text fill="#A0A0A0" font-family="sans-serif" font-size="14" font-weight="bold" lengthAdjust="spacingAndGlyphs" textLength="39" x="250" y="407.5332">order</text><!--cluster uniqueness--><polygon fill="#FFFFFF" points="492,499,581,499,588,522.6094,723,522.6094,723,583,492,583,492,499" style="stroke: #A0A0A0; stroke-width: 1.5;"/><line style="stroke: #A0A0A0; stroke-width: 1.5;" x1="492" x2="588" y1="522.6094" y2="522.6094"/><text fill="#A0A0A0" font-family="sans-serif" font-size="14" font-weight="bold" lengthAdjust="spacingAndGlyphs" textLength="83" x="496" y="515.5332">uniqueness</text><!--class Deque--><rect fill="#FFFFFF" height="32" id="Deque" style="stroke: #202020; stroke-width: 1.5;" width="69" x="48.5" y="60"/><ellipse cx="63.5" cy="76" fill="#E6E6FA" rx="11" ry="11" style="stroke: #202020; stroke-width: 1.0;"/><path d="M64.6719,80.7188 L65.4063,80.7188 L65.4063,82.8594 L61.7188,82.8594 L61.7188,80.7188 L62.4531,80.7188 L62.4531,71.375 L61.7188,71.375 L61.7188,69.2344 L65.4063,69.2344 L65.4063,71.375 L64.6719,71.375 L64.6719,80.7188 Z "/><text fill="#000000" font-family="sans-serif" font-size="12" font-style="italic" lengthAdjust="spacingAndGlyphs" textLength="37" x="77.5" y="80.9102">Deque</text><!--class Indexed--><rect fill="#FFFFFF" height="32" id="Indexed" style="stroke: #202020; stroke-width: 1.5;" width="77" x="478.5" y="60"/><ellipse cx="493.5" cy="76" fill="#E6E6FA" rx="11" ry="11" style="stroke: #202020; stroke-width: 1.0;"/><path d="M494.6719,80.7188 L495.4063,80.7188 L495.4063,82.8594 L491.7188,82.8594 L491.7188,80.7188 L492.4531,80.7188 L492.4531,71.375 L491.7188,71.375 L491.7188,69.2344 L495.4063,69.2344 L495.4063,71.375 L494.6719,71.375 L494.6719,80.7188 Z "/><text fill="#000000" font-family="sans-serif" font-size="12" font-style="italic" lengthAdjust="spacingAndGlyphs" textLength="45" x="507.5" y="80.9102">Indexed</text><!--class Queue--><rect fill="#FFFFFF" height="32" id="Queue" style="stroke: #202020; stroke-width: 1.5;" width="69" x="152.5" y="60"/><ellipse cx="167.5" cy="76" fill="#E6E6FA" rx="11" ry="11" style="stroke: #202020; stroke-width: 1.0;"/><path d="M168.6719,80.7188 L169.4063,80.7188 L169.4063,82.8594 L165.7188,82.8594 L165.7188,80.7188 L166.4531,80.7188 L166.4531,71.375 L165.7188,71.375 L165.7188,69.2344 L169.4063,69.2344 L169.4063,71.375 L168.6719,71.375 L168.6719,80.7188 Z "/><text fill="#000000" font-family="sans-serif" font-size="12" font-style="italic" lengthAdjust="spacingAndGlyphs" textLength="37" x="181.5" y="80.9102">Queue</text><!--class Sequence--><rect fill="#FFFFFF" height="32" id="Sequence" style="stroke: #202020; stroke-width: 1.5;" width="88" x="355" y="60"/><ellipse cx="370" cy="76" fill="#E6E6FA" rx="11" ry="11" style="stroke: #202020; stroke-width: 1.0;"/><path d="M371.1719,80.7188 L371.9063,80.7188 L371.9063,82.8594 L368.2188,82.8594 L368.2188,80.7188 L368.9531,80.7188 L368.9531,71.375 L368.2188,71.375 L368.2188,69.2344 L371.9063,69.2344 L371.9063,71.375 L371.1719,71.375 L371.1719,80.7188 Z "/><text fill="#000000" font-family="sans-serif" font-size="12" font-style="italic" lengthAdjust="spacingAndGlyphs" textLength="56" x="384" y="80.9102">Sequence</text><!--class Set--><rect fill="#FFFFFF" height="32" id="Set" style="stroke: #202020; stroke-width: 1.5;" width="50" x="591" y="60"/><ellipse cx="606" cy="76" fill="#E6E6FA" rx="11" ry="11" style="stroke: #202020; stroke-width: 1.0;"/><path d="M607.1719,80.7188 L607.9063,80.7188 L607.9063,82.8594 L604.2188,82.8594 L604.2188,80.7188 L604.9531,80.7188 L604.9531,71.375 L604.2188,71.375 L604.2188,69.2344 L607.9063,69.2344 L607.9063,71.375 L607.1719,71.375 L607.1719,80.7188 Z "/><text fill="#000000" font-family="sans-serif" font-size="12" font-style="italic" lengthAdjust="spacingAndGlyphs" textLength="18" x="620" y="80.9102">Set</text><!--class Stack--><rect fill="#FFFFFF" height="32" id="Stack" style="stroke: #202020; stroke-width: 1.5;" width="63" x="256.5" y="60"/><ellipse cx="271.5" cy="76" fill="#E6E6FA" rx="11" ry="11" style="stroke: #202020; stroke-width: 1.0;"/><path d="M272.6719,80.7188 L273.4063,80.7188 L273.4063,82.8594 L269.7188,82.8594 L269.7188,80.7188 L270.4531,80.7188 L270.4531,71.375 L269.7188,71.375 L269.7188,69.2344 L273.4063,69.2344 L273.4063,71.375 L272.6719,71.375 L272.6719,80.7188 Z "/><text fill="#000000" font-family="sans-serif" font-size="12" font-style="italic" lengthAdjust="spacingAndGlyphs" textLength="31" x="285.5" y="80.9102">Stack</text><!--class ArrayDeque--><rect fill="#FFFFFF" height="32" id="ArrayDeque" style="stroke: #202020; stroke-width: 1.5;" width="96" x="38" y="274"/><ellipse cx="53" cy="290" fill="#ADD1B2" rx="11" ry="11" style="stroke: #202020; stroke-width: 1.0;"/><path d="M56.6875,291.2031 Q56.4375,294.6875 55.2969,295.8438 Q54.2656,296.8594 52.8594,296.8594 Q51.4531,296.8594 50.4219,295.8438 Q48.6719,294.0781 48.6719,290.4063 Q48.6719,286.1563 50.5469,284.25 Q51.5938,283.2344 52.9219,283.2344 Q54.3281,283.2344 55.1719,284.0469 Q56.6563,285.5625 56.5781,288.4375 L54.4531,288.4375 Q54.375,286.1094 53.7344,285.4688 Q53.4531,285.1719 52.9219,285.1719 Q52.4688,285.1719 52.1094,285.5469 Q50.875,286.7656 50.875,290.2813 Q50.875,293.3281 51.9219,294.3438 Q52.3438,294.7813 52.8594,294.7813 Q53.3125,294.7813 53.75,294.3438 Q54.3125,293.7969 54.3906,291.2031 L56.6875,291.2031 Z "/><text fill="#000000" font-family="sans-serif" font-size="12" lengthAdjust="spacingAndGlyphs" textLength="64" x="67" y="294.9102">ArrayDeque</text><!--class ArrayQueue--><rect fill="#FFFFFF" height="32" id="ArrayQueue" style="stroke: #202020; stroke-width: 1.5;" width="96" x="169" y="274"/><ellipse cx="184" cy="290" fill="#ADD1B2" rx="11" ry="11" style="stroke: #202020; stroke-width: 1.0;"/><path d="M187.6875,291.2031 Q187.4375,294.6875 186.2969,295.8438 Q185.2656,296.8594 183.8594,296.8594 Q182.4531,296.8594 181.4219,295.8438 Q179.6719,294.0781 179.6719,290.4063 Q179.6719,286.1563 181.5469,284.25 Q182.5938,283.2344 183.9219,283.2344 Q185.3281,283.2344 186.1719,284.0469 Q187.6563,285.5625 187.5781,288.4375 L185.4531,288.4375 Q185.375,286.1094 184.7344,285.4688 Q184.4531,285.1719 183.9219,285.1719 Q183.4688,285.1719 183.1094,285.5469 Q181.875,286.7656 181.875,290.2813 Q181.875,293.3281 182.9219,294.3438 Q183.3438,294.7813 183.8594,294.7813 Q184.3125,294.7813 184.75,294.3438 Q185.3125,293.7969 185.3906,291.2031 L187.6875,291.2031 Z "/><text fill="#000000" font-family="sans-serif" font-size="12" lengthAdjust="spacingAndGlyphs" textLength="64" x="198" y="294.9102">ArrayQueue</text><!--class ArrayList--><rect fill="#FFFFFF" height="32" id="ArrayList" style="stroke: #202020; stroke-width: 1.5;" width="79" x="448.5" y="274"/><ellipse cx="463.5" cy="290" fill="#ADD1B2" rx="11" ry="11" style="stroke: #202020; stroke-width: 1.0;"/><path d="M467.1875,291.2031 Q466.9375,294.6875 465.7969,295.8438 Q464.7656,296.8594 463.3594,296.8594 Q461.9531,296.8594 460.9219,295.8438 Q459.1719,294.0781 459.1719,290.4063 Q459.1719,286.1563 461.0469,284.25 Q462.0938,283.2344 463.4219,283.2344 Q464.8281,283.2344 465.6719,284.0469 Q467.1563,285.5625 467.0781,288.4375 L464.9531,288.4375 Q464.875,286.1094 464.2344,285.4688 Q463.9531,285.1719 463.4219,285.1719 Q462.9688,285.1719 462.6094,285.5469 Q461.375,286.7656 461.375,290.2813 Q461.375,293.3281 462.4219,294.3438 Q462.8438,294.7813 463.3594,294.7813 Q463.8125,294.7813 464.25,294.3438 Q464.8125,293.7969 464.8906,291.2031 L467.1875,291.2031 Z "/><text fill="#000000" font-family="sans-serif" font-size="12" lengthAdjust="spacingAndGlyphs" textLength="47" x="477.5" y="294.9102">ArrayList</text><!--class ArrayMultiSet--><rect fill="#FFFFFF" height="32" id="ArrayMultiSet" style="stroke: #202020; stroke-width: 1.5;" width="102" x="563" y="274"/><ellipse cx="578" cy="290" fill="#ADD1B2" rx="11" ry="11" style="stroke: #202020; stroke-width: 1.0;"/><path d="M581.6875,291.2031 Q581.4375,294.6875 580.2969,295.8438 Q579.2656,296.8594 577.8594,296.8594 Q576.4531,296.8594 575.4219,295.8438 Q573.6719,294.0781 573.6719,290.4063 Q573.6719,286.1563 575.5469,284.25 Q576.5938,283.2344 577.9219,283.2344 Q579.3281,283.2344 580.1719,284.0469 Q581.6563,285.5625 581.5781,288.4375 L579.4531,288.4375 Q579.375,286.1094 578.7344,285.4688 Q578.4531,285.1719 577.9219,285.1719 Q577.4688,285.1719 577.1094,285.5469 Q575.875,286.7656 575.875,290.2813 Q575.875,293.3281 576.9219,294.3438 Q577.3438,294.7813 577.8594,294.7813 Q578.3125,294.7813 578.75,294.3438 Q579.3125,293.7969 579.3906,291.2031 L581.6875,291.2031 Z "/><text fill="#000000" font-family="sans-serif" font-size="12" lengthAdjust="spacingAndGlyphs" textLength="70" x="592" y="294.9102">ArrayMultiSet</text><!--class ArraySet--><rect fill="#FFFFFF" height="32" id="ArraySet" style="stroke: #202020; stroke-width: 1.5;" width="77" x="700.5" y="274"/><ellipse cx="715.5" cy="290" fill="#ADD1B2" rx="11" ry="11" style="stroke: #202020; stroke-width: 1.0;"/><path d="M719.1875,291.2031 Q718.9375,294.6875 717.7969,295.8438 Q716.7656,296.8594 715.3594,296.8594 Q713.9531,296.8594 712.9219,295.8438 Q711.1719,294.0781 711.1719,290.4063 Q711.1719,286.1563 713.0469,284.25 Q714.0938,283.2344 715.4219,283.2344 Q716.8281,283.2344 717.6719,284.0469 Q719.1563,285.5625 719.0781,288.4375 L716.9531,288.4375 Q716.875,286.1094 716.2344,285.4688 Q715.9531,285.1719 715.4219,285.1719 Q714.9688,285.1719 714.6094,285.5469 Q713.375,286.7656 713.375,290.2813 Q713.375,293.3281 714.4219,294.3438 Q714.8438,294.7813 715.3594,294.7813 Q715.8125,294.7813 716.25,294.3438 Q716.8125,293.7969 716.8906,291.2031 L719.1875,291.2031 Z "/><text fill="#000000" font-family="sans-serif" font-size="12" lengthAdjust="spacingAndGlyphs" textLength="45" x="729.5" y="294.9102">ArraySet</text><!--class ArrayStack--><rect fill="#FFFFFF" height="32" id="ArrayStack" style="stroke: #202020; stroke-width: 1.5;" width="89" x="324.5" y="274"/><ellipse cx="339.5" cy="290" fill="#ADD1B2" rx="11" ry="11" style="stroke: #202020; stroke-width: 1.0;"/><path d="M343.1875,291.2031 Q342.9375,294.6875 341.7969,295.8438 Q340.7656,296.8594 339.3594,296.8594 Q337.9531,296.8594 336.9219,295.8438 Q335.1719,294.0781 335.1719,290.4063 Q335.1719,286.1563 337.0469,284.25 Q338.0938,283.2344 339.4219,283.2344 Q340.8281,283.2344 341.6719,284.0469 Q343.1563,285.5625 343.0781,288.4375 L340.9531,288.4375 Q340.875,286.1094 340.2344,285.4688 Q339.9531,285.1719 339.4219,285.1719 Q338.9688,285.1719 338.6094,285.5469 Q337.375,286.7656 337.375,290.2813 Q337.375,293.3281 338.4219,294.3438 Q338.8438,294.7813 339.3594,294.7813 Q339.8125,294.7813 340.25,294.3438 Q340.8125,293.7969 340.8906,291.2031 L343.1875,291.2031 Z "/><text fill="#000000" font-family="sans-serif" font-size="12" lengthAdjust="spacingAndGlyphs" textLength="57" x="353.5" y="294.9102">ArrayStack</text><!--class Ordered--><rect fill="#FFFFFF" height="32" id="Ordered" style="stroke: #202020; stroke-width: 1.5;" width="77" x="262.5" y="427"/><ellipse cx="277.5" cy="443" fill="#A9DCDF" rx="11" ry="11" style="stroke: #202020; stroke-width: 1.0;"/><path d="M275.4688,449.3594 L273.1719,449.3594 L276.6719,435.7344 L278.5313,435.7344 L282.0156,449.3594 L279.7188,449.3594 L278.7969,445.5781 L276.4063,445.5781 L275.4688,449.3594 Z M277.5313,439.75 L277.6563,439.75 L276.9063,443.625 L278.2813,443.625 L277.5313,439.75 Z "/><text fill="#000000" font-family="sans-serif" font-size="12" font-style="italic" lengthAdjust="spacingAndGlyphs" textLength="45" x="291.5" y="447.9102">Ordered</text><!--class Unordered--><rect fill="#FFFFFF" height="32" id="Unordered" style="stroke: #202020; stroke-width: 1.5;" width="91" x="374.5" y="427"/><ellipse cx="389.5" cy="443" fill="#A9DCDF" rx="11" ry="11" style="stroke: #202020; stroke-width: 1.0;"/><path d="M387.4688,449.3594 L385.1719,449.3594 L388.6719,435.7344 L390.5313,435.7344 L394.0156,449.3594 L391.7188,449.3594 L390.7969,445.5781 L388.4063,445.5781 L387.4688,449.3594 Z M389.5313,439.75 L389.6563,439.75 L388.9063,443.625 L390.2813,443.625 L389.5313,439.75 Z "/><text fill="#000000" font-family="sans-serif" font-size="12" font-style="italic" lengthAdjust="spacingAndGlyphs" textLength="59" x="403.5" y="447.9102">Unordered</text><!--class Unique--><rect fill="#FFFFFF" height="32" id="Unique" style="stroke: #202020; stroke-width: 1.5;" width="72" x="635" y="535"/><ellipse cx="650" cy="551" fill="#A9DCDF" rx="11" ry="11" style="stroke: #202020; stroke-width: 1.0;"/><path d="M647.9688,557.3594 L645.6719,557.3594 L649.1719,543.7344 L651.0313,543.7344 L654.5156,557.3594 L652.2188,557.3594 L651.2969,553.5781 L648.9063,553.5781 L647.9688,557.3594 Z M650.0313,547.75 L650.1563,547.75 L649.4063,551.625 L650.7813,551.625 L650.0313,547.75 Z "/><text fill="#000000" font-family="sans-serif" font-size="12" font-style="italic" lengthAdjust="spacingAndGlyphs" textLength="40" x="664" y="555.9102">Unique</text><!--class NotUnique--><rect fill="#FFFFFF" height="32" id="NotUnique" style="stroke: #202020; stroke-width: 1.5;" width="91" x="508.5" y="535"/><ellipse cx="523.5" cy="551" fill="#A9DCDF" rx="11" ry="11" style="stroke: #202020; stroke-width: 1.0;"/><path d="M521.4688,557.3594 L519.1719,557.3594 L522.6719,543.7344 L524.5313,543.7344 L528.0156,557.3594 L525.7188,557.3594 L524.7969,553.5781 L522.4063,553.5781 L521.4688,557.3594 Z M523.5313,547.75 L523.6563,547.75 L522.9063,551.625 L524.2813,551.625 L523.5313,547.75 Z "/><text fill="#000000" font-family="sans-serif" font-size="12" font-style="italic" lengthAdjust="spacingAndGlyphs" textLength="59" x="537.5" y="555.9102">NotUnique</text><!--reverse link Deque to ArrayDeque--><path d="M83.5028,112.534 C84.1686,159.581 85.3134,240.484 85.7862,273.892 " fill="none" id="Deque&lt;-ArrayDeque" style="stroke: #202020; stroke-width: 1.0; stroke-dasharray: 7.0,7.0;"/><polygon fill="none" points="76.4995,112.344,83.2158,92.247,90.4981,112.145,76.4995,112.344" style="stroke: #202020; stroke-width: 1.0;"/><!--reverse link Sequence to ArrayDeque--><path d="M358.045,102.856 C351.033,107.256 343.814,111.769 337,116 C254.63,167.147 228.569,171.829 151,230 C132.833,243.624 113.794,261.376 101.0525,273.835 " fill="none" id="Sequence&lt;-ArrayDeque" style="stroke: #202020; stroke-width: 1.0; stroke-dasharray: 7.0,7.0;"/><polygon fill="none" points="354.537,96.793,375.193,92.066,361.993,108.642,354.537,96.793" style="stroke: #202020; stroke-width: 1.0;"/><!--reverse link Indexed to ArrayList--><path d="M512.183,112.213 C505.754,159.213 494.647,240.407 490.067,273.892 " fill="none" id="Indexed&lt;-ArrayList" style="stroke: #202020; stroke-width: 1.0; stroke-dasharray: 7.0,7.0;"/><polygon fill="none" points="505.268,111.113,514.914,92.247,519.139,113.011,505.268,111.113" style="stroke: #202020; stroke-width: 1.0;"/><!--reverse link Sequence to ArrayList--><path d="M413.248,110.94 C432.892,157.732 467.473,240.103 481.657,273.892 " fill="none" id="Sequence&lt;-ArrayList" style="stroke: #202020; stroke-width: 1.0; stroke-dasharray: 7.0,7.0;"/><polygon fill="none" points="406.688,113.397,405.401,92.247,419.597,107.978,406.688,113.397" style="stroke: #202020; stroke-width: 1.0;"/><!--reverse link Set to ArrayList--><path d="M596.454,109.373 C568.38,155.871 517.752,239.723 497.122,273.892 " fill="none" id="Set&lt;-ArrayList" style="stroke: #202020; stroke-width: 1.0; stroke-dasharray: 7.0,7.0;"/><polygon fill="none" points="590.465,105.75,606.795,92.247,602.45,112.986,590.465,105.75" style="stroke: #202020; stroke-width: 1.0;"/><!--reverse link Set to ArrayMultiSet--><path d="M641.026,108.185 C649.777,120.987 658.528,136.441 663,152 C670.612,178.483 670.863,187.59 663,214 C656.121,237.106 639.609,259.726 627.651,273.979 " fill="none" id="Set&lt;-ArrayMultiSet" style="stroke: #202020; stroke-width: 1.0; stroke-dasharray: 7.0,7.0;"/><polygon fill="none" points="635.402,112.353,629.102,92.122,646.643,104.009,635.402,112.353" style="stroke: #202020; stroke-width: 1.0;"/><!--reverse link Sequence to ArrayMultiSet--><path d="M428.737,106.322 C475.174,152.111 563.253,238.962 598.678,273.892 " fill="none" id="Sequence&lt;-ArrayMultiSet" style="stroke: #202020; stroke-width: 1.0; stroke-dasharray: 7.0,7.0;"/><polygon fill="none" points="423.789,111.273,414.462,92.247,433.618,101.305,423.789,111.273" style="stroke: #202020; stroke-width: 1.0;"/><!--reverse link Queue to ArrayQueue--><path d="M191.983,112.213 C198.634,159.213 210.124,240.407 214.862,273.892 " fill="none" id="Queue&lt;-ArrayQueue" style="stroke: #202020; stroke-width: 1.0; stroke-dasharray: 7.0,7.0;"/><polygon fill="none" points="185.029,113.03,189.158,92.247,198.891,111.068,185.029,113.03" style="stroke: #202020; stroke-width: 1.0;"/><!--reverse link Sequence to ArrayQueue--><path d="M372.791,107.529 C333.222,153.621 259.696,239.266 229.97,273.892 " fill="none" id="Sequence&lt;-ArrayQueue" style="stroke: #202020; stroke-width: 1.0; stroke-dasharray: 7.0,7.0;"/><polygon fill="none" points="367.572,102.862,385.911,92.247,378.195,111.981,367.572,102.862" style="stroke: #202020; stroke-width: 1.0;"/><!--reverse link Set to ArraySet--><path d="M649.785,105.854 C663.403,118.857 678.371,135.08 689,152 C714.321,192.306 729.417,247.298 735.65,273.668 " fill="none" id="Set&lt;-ArraySet" style="stroke: #202020; stroke-width: 1.0; stroke-dasharray: 7.0,7.0;"/><polygon fill="none" points="644.868,110.845,634.761,92.221,654.276,100.477,644.868,110.845" style="stroke: #202020; stroke-width: 1.0;"/><!--reverse link Sequence to ArraySet--><path d="M439.026,102.873 C446.274,107.359 453.814,111.896 461,116 C556.974,170.806 593.315,164.048 682,230 C699.257,242.834 715.987,261.055 726.808,273.843 " fill="none" id="Sequence&lt;-ArraySet" style="stroke: #202020; stroke-width: 1.0; stroke-dasharray: 7.0,7.0;"/><polygon fill="none" points="435.148,108.703,421.974,92.106,442.622,96.865,435.148,108.703" style="stroke: #202020; stroke-width: 1.0;"/><!--reverse link Stack to ArrayStack--><path d="M300.968,110.94 C318.846,157.732 350.318,240.103 363.227,273.892 " fill="none" id="Stack&lt;-ArrayStack" style="stroke: #202020; stroke-width: 1.0; stroke-dasharray: 7.0,7.0;"/><polygon fill="none" points="294.425,113.428,293.825,92.247,307.503,108.431,294.425,113.428" style="stroke: #202020; stroke-width: 1.0;"/><!--link ArrayDeque to Ordered--><path d="M107.401,306.031 C143.609,331.46 217.424,383.302 262.717,415.113 " fill="none" id="ArrayDeque-&gt;Ordered" style="stroke: #202020; stroke-width: 1.0;"/><polygon fill="none" points="267.023,409.583,279.366,426.806,258.976,421.04,267.023,409.583" style="stroke: #202020; stroke-width: 1.0;"/><!--link ArrayList to Ordered--><path d="M465.887,306.173 C431.157,330.057 366.758,374.581 357,383 C346.794,391.806 336.413,402.248 327.407,411.881 " fill="none" id="ArrayList-&gt;Ordered" style="stroke: #202020; stroke-width: 1.0;"/><polygon fill="none" points="332.43,416.763,313.821,426.899,322.047,407.371,332.43,416.763" style="stroke: #202020; stroke-width: 1.0;"/><!--link ArrayQueue to Ordered--><path d="M225.361,306.031 C238.626,329.876 264.811,376.946 282.612,408.946 " fill="none" id="ArrayQueue-&gt;Ordered" style="stroke: #202020; stroke-width: 1.0;"/><polygon fill="none" points="288.817,405.7,292.422,426.581,276.582,412.506,288.817,405.7" style="stroke: #202020; stroke-width: 1.0;"/><!--link ArrayStack to Ordered--><path d="M362.231,306.031 C351.594,329.651 330.695,376.06 316.295,408.036 " fill="none" id="ArrayStack-&gt;Ordered" style="stroke: #202020; stroke-width: 1.0;"/><polygon fill="none" points="322.539,411.219,307.944,426.581,309.773,405.47,322.539,411.219" style="stroke: #202020; stroke-width: 1.0;"/><!--link ArraySet to Unordered--><path d="M719.038,306.084 C708.37,313.774 694.823,322.961 682,330 C615.717,366.384 535.183,399.248 481.046,419.824 " fill="none" id="ArraySet-&gt;Unordered" style="stroke: #202020; stroke-width: 1.0;"/><polygon fill="none" points="483.207,426.49,462.022,426.962,478.289,413.382,483.207,426.49" style="stroke: #202020; stroke-width: 1.0;"/><!--link ArrayMultiSet to Unordered--><path d="M594.689,306.031 C562.236,331.291 496.298,382.614 455.363,414.475 " fill="none" id="ArrayMultiSet-&gt;Unordered" style="stroke: #202020; stroke-width: 1.0;"/><polygon fill="none" points="459.603,420.046,439.521,426.806,451.004,408.998,459.603,420.046" style="stroke: #202020; stroke-width: 1.0;"/><!--link ArrayDeque to NotUnique--><path d="M90.5063,306.204 C102.2894,343.116 137.712,437.751 203,483 C248.316,514.4075 399.921,534.5011 488.367,543.8505 " fill="none" id="ArrayDeque-&gt;NotUnique" style="stroke: #202020; stroke-width: 1.0;"/><polygon fill="none" points="489.15,536.894,508.334,545.8923,487.726,550.8214,489.15,536.894" style="stroke: #202020; stroke-width: 1.0;"/><!--link ArrayList to NotUnique--><path d="M504.097,306.236 C517.748,320.292 536.435,342.489 545,366 C562.903,415.14 561.606,476.579 558.333,514.5537 " fill="none" id="ArrayList-&gt;NotUnique" style="stroke: #202020; stroke-width: 1.0;"/><polygon fill="none" points="565.277,515.4603,556.223,534.6182,551.354,513.9957,565.277,515.4603" style="stroke: #202020; stroke-width: 1.0;"/><!--link ArrayQueue to NotUnique--><path d="M214.152,306.127 C208.338,342.051 199.305,433.203 246,483 C278.419,517.5736 407.983,536.0349 488.384,544.3591 " fill="none" id="ArrayQueue-&gt;NotUnique" style="stroke: #202020; stroke-width: 1.0;"/><polygon fill="none" points="489.192,537.4048,508.411,546.3293,487.822,551.3375,489.192,537.4048" style="stroke: #202020; stroke-width: 1.0;"/><!--link ArrayStack to NotUnique--><path d="M393.988,306.182 C419.078,322.497 457.44,350.509 482,383 C512.902,423.881 533.562,480.056 544.545,515.697 " fill="none" id="ArrayStack-&gt;NotUnique" style="stroke: #202020; stroke-width: 1.0;"/><polygon fill="none" points="551.271,513.7553,550.138,534.9146,537.828,517.6674,551.271,513.7553" style="stroke: #202020; stroke-width: 1.0;"/><!--link ArraySet to Unique--><path d="M735.05,306.044 C724.44,346.456 695.11,458.168 680.103,515.329 " fill="none" id="ArraySet-&gt;Unique" style="stroke: #202020; stroke-width: 1.0;"/><polygon fill="none" points="686.81,517.3473,674.961,534.914,673.269,513.792,686.81,517.3473" style="stroke: #202020; stroke-width: 1.0;"/><!--link ArrayMultiSet to NotUnique--><path d="M617.852,306.13 C625.565,339.476 640.194,421.232 616,483 C610.343,497.443 599.949,510.6356 589.267,521.4229 " fill="none" id="ArrayMultiSet-&gt;NotUnique" style="stroke: #202020; stroke-width: 1.0;"/><polygon fill="none" points="593.931,526.6425,574.438,534.9503,584.496,516.2997,593.931,526.6425" style="stroke: #202020; stroke-width: 1.0;"/><!--
@startuml container


skinparam shadowing false
skinparam backgroundColor White
skinparam package {
  BorderColor #A0A0A0
  FontColor #A0A0A0
}
skinparam class {
  BackgroundColor White
  ArrowColor #202020
  BorderColor #202020
  FontColor #000000
}
skinparam note {
  BackgroundColor White
  FontColor #606060
  BorderColor #C0C0C0
}
skinparam stereotypeIBackgroundColor Lavender
hide empty members


package interfaces {
  interface Deque
  interface Indexed
  interface Queue
  interface Sequence
  interface Set
  interface Stack
}
package ring_buffer {
  class ArrayDeque
  class ArrayQueue
}

package top_aligned_buffer {
  class ArrayList
  class ArrayMultiSet
  class ArraySet
  class ArrayStack
}

Deque <|.... ArrayDeque
Sequence <|.... ArrayDeque
Indexed <|.... ArrayList
Sequence <|.... ArrayList
Set <|.... ArrayList
Set <|.... ArrayMultiSet
Sequence <|.... ArrayMultiSet
Queue <|.... ArrayQueue
Sequence <|.... ArrayQueue
Set <|.... ArraySet
Sequence <|.... ArraySet
Stack <|.... ArrayStack

package order {
  abstract Ordered
  abstract Unordered
}

ArrayDeque - - -|> Ordered
ArrayList - - -|> Ordered
ArrayQueue - - -|> Ordered
ArrayStack - - -|> Ordered
ArraySet - - -|> Unordered
ArrayMultiSet - - -|> Unordered

package uniqueness {
  abstract Unique
  abstract NotUnique
}

ArrayDeque - - - -|> NotUnique
ArrayList - - - -|> NotUnique
ArrayQueue - - - -|> NotUnique
ArrayStack - - - -|> NotUnique
ArraySet - - - -|> Unique
ArrayMultiSet - - - -|> NotUnique

@enduml

PlantUML version 1.2019.09(Tue Aug 27 01:19:51 GMT+09:00 2019)
(GPL source distribution)
Java Runtime: OpenJDK Runtime Environment
JVM: OpenJDK 64-Bit Server VM
Java Version: 1.8.0_242-b08
Operating System: Windows 10
OS Version: 10.0
Default Encoding: MS932
Language: ja
Country: JP
--></g></svg>