<?xml version="1.0" encoding="UTF-8" standalone="no"?><svg xmlns="http://www.w3.org/2000/svg" xmlns:xlink="http://www.w3.org/1999/xlink" contentScriptType="application/ecmascript" contentStyleType="text/css" height="550px" preserveAspectRatio="none" style="width:620px;height:550px;" version="1.1" viewBox="0 0 620 550" width="620px" zoomAndPan="magnify"><defs/><g><!--cluster main_vector_classes--><polygon fill="#FFFFFF" points="165,242,319,242,326,265.6094,598,265.6094,598,538,165,538,165,242" style="stroke: #A0A0A0; stroke-width: 1.5;"/><line style="stroke: #A0A0A0; stroke-width: 1.5;" x1="165" x2="326" y1="265.6094" y2="265.6094"/><text fill="#A0A0A0" font-family="sans-serif" font-size="14" font-weight="bold" lengthAdjust="spacingAndGlyphs" textLength="148" x="169" y="258.5332">main_vector_classes</text><!--cluster underlying_types--><polygon fill="#FFFFFF" points="22,24,149,24,156,47.6094,319,47.6094,319,201,22,201,22,24" style="stroke: #A0A0A0; stroke-width: 1.5;"/><line style="stroke: #A0A0A0; stroke-width: 1.5;" x1="22" x2="156" y1="47.6094" y2="47.6094"/><text fill="#A0A0A0" font-family="sans-serif" font-size="14" font-weight="bold" lengthAdjust="spacingAndGlyphs" textLength="121" x="26" y="40.5332">underlying_types</text><!--class Vector--><rect fill="#FFFFFF" height="53.8359" id="Vector" style="stroke: #202020; stroke-width: 1.5;" width="66" x="355" y="296.5"/><ellipse cx="370" cy="312.5" fill="#ADD1B2" rx="11" ry="11" style="stroke: #202020; stroke-width: 1.0;"/><path d="M373.6875,313.7031 Q373.4375,317.1875 372.2969,318.3438 Q371.2656,319.3594 369.8594,319.3594 Q368.4531,319.3594 367.4219,318.3438 Q365.6719,316.5781 365.6719,312.9063 Q365.6719,308.6563 367.5469,306.75 Q368.5938,305.7344 369.9219,305.7344 Q371.3281,305.7344 372.1719,306.5469 Q373.6563,308.0625 373.5781,310.9375 L371.4531,310.9375 Q371.375,308.6094 370.7344,307.9688 Q370.4531,307.6719 369.9219,307.6719 Q369.4688,307.6719 369.1094,308.0469 Q367.875,309.2656 367.875,312.7813 Q367.875,315.8281 368.9219,316.8438 Q369.3438,317.2813 369.8594,317.2813 Q370.3125,317.2813 370.75,316.8438 Q371.3125,316.2969 371.3906,313.7031 L373.6875,313.7031 Z "/><text fill="#000000" font-family="sans-serif" font-size="12" lengthAdjust="spacingAndGlyphs" textLength="34" x="384" y="317.4102">Vector</text><line style="stroke: #202020; stroke-width: 1.5;" x1="356" x2="420" y1="328.5" y2="328.5"/><text fill="#000000" font-family="sans-serif" font-size="11" lengthAdjust="spacingAndGlyphs" textLength="4" x="361" y="343.9189">-</text><path d="M456,286 L456,319.5 L421.238,323.5 L456,327.5 L456,361.4063 A0,0 0 0 0 456,361.4063 L574,361.4063 A0,0 0 0 0 574,361.4063 L574,296 L564,286 L456,286 A0,0 0 0 0 456,286 " fill="#FFFFFF" style="stroke: #C0C0C0; stroke-width: 1.0;"/><path d="M564,286 L564,296 L574,296 L564,286 " fill="#FFFFFF" style="stroke: #C0C0C0; stroke-width: 1.0;"/><text fill="#606060" font-family="sans-serif" font-size="13" lengthAdjust="spacingAndGlyphs" textLength="90" x="462" y="304.4951">no features, but</text><text fill="#606060" font-family="sans-serif" font-size="13" lengthAdjust="spacingAndGlyphs" textLength="97" x="462" y="320.8467">guaranteed to be</text><text fill="#606060" font-family="sans-serif" font-size="13" lengthAdjust="spacingAndGlyphs" textLength="96" x="462" y="337.1982">NOT WRITABLE</text><text fill="#606060" font-family="sans-serif" font-size="13" lengthAdjust="spacingAndGlyphs" textLength="84" x="462" y="353.5498">from anywhere</text><!--class WritableVector--><rect fill="#FFFFFF" height="53.8359" id="WritableVector" style="stroke: #202020; stroke-width: 1.5;" width="111" x="208.5" y="296.5"/><ellipse cx="223.5" cy="312.5" fill="#ADD1B2" rx="11" ry="11" style="stroke: #202020; stroke-width: 1.0;"/><path d="M227.1875,313.7031 Q226.9375,317.1875 225.7969,318.3438 Q224.7656,319.3594 223.3594,319.3594 Q221.9531,319.3594 220.9219,318.3438 Q219.1719,316.5781 219.1719,312.9063 Q219.1719,308.6563 221.0469,306.75 Q222.0938,305.7344 223.4219,305.7344 Q224.8281,305.7344 225.6719,306.5469 Q227.1563,308.0625 227.0781,310.9375 L224.9531,310.9375 Q224.875,308.6094 224.2344,307.9688 Q223.9531,307.6719 223.4219,307.6719 Q222.9688,307.6719 222.6094,308.0469 Q221.375,309.2656 221.375,312.7813 Q221.375,315.8281 222.4219,316.8438 Q222.8438,317.2813 223.3594,317.2813 Q223.8125,317.2813 224.25,316.8438 Q224.8125,316.2969 224.8906,313.7031 L227.1875,313.7031 Z "/><text fill="#000000" font-family="sans-serif" font-size="12" lengthAdjust="spacingAndGlyphs" textLength="79" x="237.5" y="317.4102">WritableVector</text><line style="stroke: #202020; stroke-width: 1.5;" x1="209.5" x2="318.5" y1="328.5" y2="328.5"/><text fill="#000000" font-family="sans-serif" font-size="11" lengthAdjust="spacingAndGlyphs" textLength="75" x="214.5" y="343.9189">WRITE features</text><!--class VectorReference--><rect fill="#FFFFFF" height="53.8359" id="VectorReference" style="stroke: #202020; stroke-width: 1.5;" width="123" x="243.5" y="449.5"/><ellipse cx="258.5" cy="465.5" fill="#ADD1B2" rx="11" ry="11" style="stroke: #202020; stroke-width: 1.0;"/><path d="M262.1875,466.7031 Q261.9375,470.1875 260.7969,471.3438 Q259.7656,472.3594 258.3594,472.3594 Q256.9531,472.3594 255.9219,471.3438 Q254.1719,469.5781 254.1719,465.9063 Q254.1719,461.6563 256.0469,459.75 Q257.0938,458.7344 258.4219,458.7344 Q259.8281,458.7344 260.6719,459.5469 Q262.1563,461.0625 262.0781,463.9375 L259.9531,463.9375 Q259.875,461.6094 259.2344,460.9688 Q258.9531,460.6719 258.4219,460.6719 Q257.9688,460.6719 257.6094,461.0469 Q256.375,462.2656 256.375,465.7813 Q256.375,468.8281 257.4219,469.8438 Q257.8438,470.2813 258.3594,470.2813 Q258.8125,470.2813 259.25,469.8438 Q259.8125,469.2969 259.8906,466.7031 L262.1875,466.7031 Z "/><text fill="#000000" font-family="sans-serif" font-size="12" lengthAdjust="spacingAndGlyphs" textLength="91" x="272.5" y="470.4102">VectorReference</text><line style="stroke: #202020; stroke-width: 1.5;" x1="244.5" x2="365.5" y1="481.5" y2="481.5"/><text fill="#000000" font-family="sans-serif" font-size="11" lengthAdjust="spacingAndGlyphs" textLength="72" x="249.5" y="496.9189">READ features</text><path d="M401.5,439 L401.5,472.5 L366.553,476.5 L401.5,480.5 L401.5,514.4063 A0,0 0 0 0 401.5,514.4063 L538.5,514.4063 A0,0 0 0 0 538.5,514.4063 L538.5,449 L528.5,439 L401.5,439 A0,0 0 0 0 401.5,439 " fill="#FFFFFF" style="stroke: #C0C0C0; stroke-width: 1.0;"/><path d="M528.5,439 L528.5,449 L538.5,449 L528.5,439 " fill="#FFFFFF" style="stroke: #C0C0C0; stroke-width: 1.0;"/><text fill="#606060" font-family="sans-serif" font-size="13" lengthAdjust="spacingAndGlyphs" textLength="75" x="407.5" y="457.4951">Converting to</text><text fill="#606060" font-family="sans-serif" font-size="13" lengthAdjust="spacingAndGlyphs" textLength="96" x="407.5" y="473.8467">VectorReference</text><text fill="#606060" font-family="sans-serif" font-size="13" lengthAdjust="spacingAndGlyphs" textLength="116" x="407.5" y="490.1982">can be done without</text><text fill="#606060" font-family="sans-serif" font-size="13" lengthAdjust="spacingAndGlyphs" textLength="72" x="407.5" y="506.5498">runtime cost</text><!--class RawVector--><rect fill="#FFFFFF" height="32" id="RawVector" style="stroke: #202020; stroke-width: 1.5;" width="91" x="127.5" y="153"/><ellipse cx="142.5" cy="169" fill="#ADD1B2" rx="11" ry="11" style="stroke: #202020; stroke-width: 1.0;"/><path d="M146.1875,170.2031 Q145.9375,173.6875 144.7969,174.8438 Q143.7656,175.8594 142.3594,175.8594 Q140.9531,175.8594 139.9219,174.8438 Q138.1719,173.0781 138.1719,169.4063 Q138.1719,165.1563 140.0469,163.25 Q141.0938,162.2344 142.4219,162.2344 Q143.8281,162.2344 144.6719,163.0469 Q146.1563,164.5625 146.0781,167.4375 L143.9531,167.4375 Q143.875,165.1094 143.2344,164.4688 Q142.9531,164.1719 142.4219,164.1719 Q141.9688,164.1719 141.6094,164.5469 Q140.375,165.7656 140.375,169.2813 Q140.375,172.3281 141.4219,173.3438 Q141.8438,173.7813 142.3594,173.7813 Q142.8125,173.7813 143.25,173.3438 Q143.8125,172.7969 143.8906,170.2031 L146.1875,170.2031 Z "/><text fill="#000000" font-family="sans-serif" font-size="12" lengthAdjust="spacingAndGlyphs" textLength="59" x="156.5" y="173.9102">RawVector</text><!--class hl_NativeArray--><rect fill="#FFFFFF" height="32" id="hl_NativeArray" style="stroke: #202020; stroke-width: 1.5;" width="110" x="193" y="60"/><ellipse cx="208" cy="76" fill="#ADD1B2" rx="11" ry="11" style="stroke: #202020; stroke-width: 1.0;"/><path d="M211.6875,77.2031 Q211.4375,80.6875 210.2969,81.8438 Q209.2656,82.8594 207.8594,82.8594 Q206.4531,82.8594 205.4219,81.8438 Q203.6719,80.0781 203.6719,76.4063 Q203.6719,72.1563 205.5469,70.25 Q206.5938,69.2344 207.9219,69.2344 Q209.3281,69.2344 210.1719,70.0469 Q211.6563,71.5625 211.5781,74.4375 L209.4531,74.4375 Q209.375,72.1094 208.7344,71.4688 Q208.4531,71.1719 207.9219,71.1719 Q207.4688,71.1719 207.1094,71.5469 Q205.875,72.7656 205.875,76.2813 Q205.875,79.3281 206.9219,80.3438 Q207.3438,80.7813 207.8594,80.7813 Q208.3125,80.7813 208.75,80.3438 Q209.3125,79.7969 209.3906,77.2031 L211.6875,77.2031 Z "/><text fill="#000000" font-family="sans-serif" font-size="12" lengthAdjust="spacingAndGlyphs" textLength="78" x="222" y="80.9102">hl_NativeArray</text><!--class haxe_ds_Vector--><rect fill="#FFFFFF" height="32" id="haxe_ds_Vector" style="stroke: #202020; stroke-width: 1.5;" width="120" x="38" y="60"/><ellipse cx="53" cy="76" fill="#ADD1B2" rx="11" ry="11" style="stroke: #202020; stroke-width: 1.0;"/><path d="M56.6875,77.2031 Q56.4375,80.6875 55.2969,81.8438 Q54.2656,82.8594 52.8594,82.8594 Q51.4531,82.8594 50.4219,81.8438 Q48.6719,80.0781 48.6719,76.4063 Q48.6719,72.1563 50.5469,70.25 Q51.5938,69.2344 52.9219,69.2344 Q54.3281,69.2344 55.1719,70.0469 Q56.6563,71.5625 56.5781,74.4375 L54.4531,74.4375 Q54.375,72.1094 53.7344,71.4688 Q53.4531,71.1719 52.9219,71.1719 Q52.4688,71.1719 52.1094,71.5469 Q50.875,72.7656 50.875,76.2813 Q50.875,79.3281 51.9219,80.3438 Q52.3438,80.7813 52.8594,80.7813 Q53.3125,80.7813 53.75,80.3438 Q54.3125,79.7969 54.3906,77.2031 L56.6875,77.2031 Z "/><text fill="#000000" font-family="sans-serif" font-size="12" lengthAdjust="spacingAndGlyphs" textLength="88" x="67" y="80.9102">haxe_ds_Vector</text><!--link WritableVector to VectorReference--><path d="M264.96,350.808 C266.1,367.7 268.586,389.959 274,409 C277.444,421.115 282.852,433.791 288.194,444.788 " fill="none" id="WritableVector-&gt;VectorReference" style="stroke: #202020; stroke-width: 1.0;"/><polygon fill="#202020" points="290.473,449.392,290.0648,439.5516,288.2547,444.911,282.8952,443.1009,290.473,449.392" style="stroke: #202020; stroke-width: 1.0;"/><text fill="#000000" font-family="sans-serif" font-size="13" lengthAdjust="spacingAndGlyphs" textLength="61" x="275" y="405.4951">convertible</text><!--link Vector to VectorReference--><path d="M373.543,350.802 C359.142,377.002 337.045,417.2 321.856,444.835 " fill="none" id="Vector-&gt;VectorReference" style="stroke: #202020; stroke-width: 1.0;"/><polygon fill="#202020" points="319.292,449.499,327.1314,443.5371,321.6996,445.1168,320.1199,439.685,319.292,449.499" style="stroke: #202020; stroke-width: 1.0;"/><text fill="#000000" font-family="sans-serif" font-size="13" lengthAdjust="spacingAndGlyphs" textLength="61" x="349" y="405.4951">convertible</text><!--reverse link hl_NativeArray to RawVector--><path d="M222.654,107.753 C210.099,122.987 195.505,140.694 185.403,152.951 " fill="none" id="hl_NativeArray&lt;-RawVector" style="stroke: #202020; stroke-width: 1.0;"/><polygon fill="none" points="217.493,103.008,235.615,92.027,228.297,111.913,217.493,103.008" style="stroke: #202020; stroke-width: 1.0;"/><!--reverse link haxe_ds_Vector to RawVector--><path d="M123.346,107.753 C135.901,122.987 150.495,140.694 160.597,152.951 " fill="none" id="haxe_ds_Vector&lt;-RawVector" style="stroke: #202020; stroke-width: 1.0;"/><polygon fill="none" points="117.703,111.913,110.385,92.027,128.507,103.008,117.703,111.913" style="stroke: #202020; stroke-width: 1.0;"/><!--reverse link RawVector to main_vector_classes--><path d="M173,205.447 C173,210.9759 173,216.9105 173,223.0679 C173,226.1466 173,229.2811 173,232.4484 C173,234.0321 173,235.6239 173,237.2212 C173,238.0198 173,238.8197 173,239.6207 C173,240.0211 173,240.4219 173,240.8228 C173,241.0232 173,241.2237 173,241.4243 " fill="none" id="RawVector&lt;-main_vector_classes" style="stroke: #202020; stroke-width: 1.0;"/><polygon fill="none" points="166,205.18,173,185.18,180,205.18,166,205.18" style="stroke: #202020; stroke-width: 1.0;"/><!--
@startuml container


skinparam shadowing false
skinparam backgroundColor White
skinparam package {
  BorderColor #A0A0A0
  FontColor #A0A0A0
}
skinparam class {
  BackgroundColor White
  ArrowColor #202020
  BorderColor #202020
  FontColor #000000
}
skinparam note {
  BackgroundColor White
  FontColor #606060
  BorderColor #C0C0C0
}
skinparam stereotypeIBackgroundColor Lavender
hide empty members


package main_vector_classes {
  class Vector {
    {method} -
  }
  note right
  no features, but
  guaranteed to be
  NOT WRITABLE
  from anywhere
  end note

  class WritableVector {
    {method} WRITE features
  }
  class VectorReference {
    {method} READ features
  }

  WritableVector - -> VectorReference: convertible
  Vector - -> VectorReference: convertible
  note right
  Converting to
  VectorReference
  can be done without
  runtime cost
  end note
}

package underlying_types {
  class RawVector
  class hl_NativeArray
  class haxe_ds_Vector

  hl_NativeArray <|- - RawVector
  haxe_ds_Vector <|- - RawVector
}

RawVector <|- - main_vector_classes

@enduml

PlantUML version 1.2019.09(Tue Aug 27 01:19:51 GMT+09:00 2019)
(GPL source distribution)
Java Runtime: OpenJDK Runtime Environment
JVM: OpenJDK 64-Bit Server VM
Java Version: 1.8.0_242-b08
Operating System: Windows 10
OS Version: 10.0
Default Encoding: MS932
Language: ja
Country: JP
--></g></svg>